<svg xmlns="http://www.w3.org/2000/svg" width="24" height="22" viewBox="0 0 24 22" fill="none">
  <path
    d="M23.5347 10.5507L17.8771 4.5667C17.6665 4.39499 17.3616 4.40505 17.1628 4.59023C16.9639 4.7754 16.9322 5.07881 17.0882 5.30097L22.3922 10.9314L17.0882 16.5346C16.9664 16.634 16.8934 16.7812 16.8882 16.9383C16.8831 17.0956 16.9461 17.2474 17.0613 17.3544C17.1764 17.4616 17.3322 17.5138 17.4885 17.4973C17.6451 17.481 17.7866 17.3977 17.8771 17.269L23.5347 11.3122C23.7421 11.1007 23.7421 10.7622 23.5347 10.5506V10.5507Z"
    fill="black"></path>
  <path
    d="M6.58909 16.5346L1.28509 10.9314L6.58909 5.32825C6.7109 5.22883 6.78395 5.0816 6.78907 4.9245C6.79419 4.76721 6.7312 4.61542 6.61603 4.50842C6.50087 4.40122 6.3451 4.34904 6.18876 4.36555C6.03223 4.38186 5.89069 4.46516 5.80018 4.59379L0.142585 10.5506C-0.0475284 10.7585 -0.0475284 11.0771 0.142585 11.285L5.80018 17.269C5.89069 17.3977 6.03223 17.481 6.18876 17.4973C6.3451 17.5138 6.50087 17.4616 6.61603 17.3544C6.7312 17.2474 6.79419 17.0956 6.78907 16.9383C6.78395 16.7812 6.7109 16.634 6.58909 16.5346V16.5346Z"
    fill="black"></path>
  <path
    d="M14.3955 0.513948C14.2547 0.481504 14.1069 0.506169 13.9845 0.582633C13.862 0.659094 13.7751 0.781281 13.7426 0.922065L8.90103 20.6965C8.86859 20.8372 8.89325 20.985 8.96972 21.1074C9.04618 21.23 9.16837 21.3169 9.30915 21.3493H9.44519H9.445C9.68937 21.3448 9.90073 21.178 9.96185 20.9412L14.7763 1.16682C14.8459 0.882222 14.6774 0.593435 14.3955 0.513973L14.3955 0.513948Z"
    fill="black"></path>
</svg>